<svg xmlns="http://www.w3.org/2000/svg" xmlns:svg="http://www.w3.org/2000/svg" xmlns:xlink="http://www.w3.org/1999/xlink" version="1.0" height="467pt" width="1000pt" viewBox="234.99999999999994 230 1008 473" ><defs><style type="text/css">
            @font-face {
                font-family: 'noto_regular';
                src: url('https://app.creately.com/diagram/assets/fonts/noto/noto-regular.woff') format('woff'),
                     url('https://app.creately.com/diagram/assets/fonts/noto/noto-regular.woff2') format('woff2');
                font-weight: normal;
                font-style: normal;
            }
        p {
            margin: 0;
        }
        </style></defs><defs><style>
            span{ display: inline-block; }
        </style></defs><g id="NeObBuxv3i6"><g transform="translate(360 300)"><path d="M 45,0 L 115,0 L 115,0 L 115,0 A 45 45 0 0 1 160 45 L 160,55 L 160,55 L 160,55 A 45 45 0 0 1 115 100 L 45,100 L 45,100 L 45,100 A 45 45 0 0 1 0 55.00000000000001 L 0,45 L 0,45 L 0,45.00000000000001 A 45 45 0 0 1 45 0 Z" fill="rgb(229,234,252)" stroke="#6d88f0" stroke-width="2" stroke-linecap="round" stroke-linejoin="round"/></g><g transform="translate(387.105, 328.395) rotate(0, 52.895, 21.605)" width="105.79" height="43.21"><text text-decoration="none" x="29.395000000000003" fill="#6d88f0" font-weight="bold" font-size="12pt" font-family="noto_regular"  y="15">Define</text><text text-decoration="none" x="76.39500000000001" fill="#6d88f0" font-weight="bold" font-size="12pt" font-family="noto_regular"  y="15"></text><text text-decoration="none" x="2.395000000000003" fill="#6d88f0" font-weight="bold" font-size="12pt" font-family="noto_regular"  y="34">Requirements</text><text text-decoration="none" x="103.39500000000001" fill="#4b4b4b" font-size="10pt" font-family="noto_regular"  y="34"></text></g></g><g id="Iku1K2VUAHQ"><g transform="translate(360 500.000005)"><path d="M 45,0 L 115,0 L 115,0 L 115,0 A 45 45 0 0 1 160 45 L 160,55 L 160,55 L 160,55 A 45 45 0 0 1 115 100 L 45,100 L 45,100 L 45,100 A 45 45 0 0 1 0 55.00000000000001 L 0,45 L 0,45 L 0,45.00000000000001 A 45 45 0 0 1 45 0 Z" fill="rgb(183,196,244)" stroke="#6d88f0" stroke-width="2" stroke-linecap="round" stroke-linejoin="round"/></g><g transform="translate(413.88, 539.195005) rotate(0, 26.12, 10.805)" width="52.24" height="21.61"><text text-decoration="none" x="1.620000000000001" fill="#ffffff" font-weight="bold" font-size="12pt" font-family="noto_regular"  y="15">Design</text><text text-decoration="none" x="50.620000000000005" fill="#4b4b4b" font-size="10pt" font-family="noto_regular"  y="15"></text></g></g><g id="5spQ9rsyv6H"><g transform="translate(600 500.000005)"><path d="M 45,0 L 115,0 L 115,0 L 115,0 A 45 45 0 0 1 160 45 L 160,55 L 160,55 L 160,55 A 45 45 0 0 1 115 100 L 45,100 L 45,100 L 45,100 A 45 45 0 0 1 0 55.00000000000001 L 0,45 L 0,45 L 0,45.00000000000001 A 45 45 0 0 1 45 0 Z" fill="rgb(150,170,248)" stroke="#6d88f0" stroke-width="2" stroke-linecap="round" stroke-linejoin="round"/></g><g transform="translate(629.42, 539.195005) rotate(0, 50.58, 10.805)" width="101.16" height="21.61"><text text-decoration="none" x="3.0799999999999983" fill="#ffffff" font-weight="bold" font-size="12pt" font-family="noto_regular"  y="15">Development</text><text text-decoration="none" x="98.08" fill="#4b4b4b" font-size="10pt" font-family="noto_regular"  y="15"></text></g></g><g id="6AfxFfVKWhd"><g transform="translate(600 300.000005)"><path d="M 45,0 L 115,0 L 115,0 L 115,0 A 45 45 0 0 1 160 45 L 160,55 L 160,55 L 160,55 A 45 45 0 0 1 115 100 L 45,100 L 45,100 L 45,100 A 45 45 0 0 1 0 55.00000000000001 L 0,45 L 0,45 L 0,45.00000000000001 A 45 45 0 0 1 45 0 Z" fill="rgb(223,255,249)" stroke="#51c0aa" stroke-width="2" stroke-linecap="round" stroke-linejoin="round"/></g><g transform="translate(652.385, 339.195005) rotate(0, 27.615, 10.805)" width="55.23" height="21.61"><text text-decoration="none" x="0.6149999999999984" fill="#51c0aa" font-weight="bold" font-size="12pt" font-family="noto_regular"  y="15">Testing</text><text text-decoration="none" x="54.614999999999995" fill="#4b4b4b" font-size="10pt" font-family="noto_regular"  y="15"></text></g></g><g id="MgqVtRDjSPk"><g transform="translate(840 300.000005)"><path d="M 45,0 L 115,0 L 115,0 L 115,0 A 45 45 0 0 1 160 45 L 160,55 L 160,55 L 160,55 A 45 45 0 0 1 115 100 L 45,100 L 45,100 L 45,100 A 45 45 0 0 1 0 55.00000000000001 L 0,45 L 0,45 L 0,45.00000000000001 A 45 45 0 0 1 45 0 Z" fill="rgb(142,239,219)" stroke="#51c0aa" stroke-width="2" stroke-linecap="round" stroke-linejoin="round"/></g><g transform="translate(873.915, 339.195005) rotate(0, 46.085, 10.805)" width="92.17" height="21.61"><text text-decoration="none" x="3.085000000000001" fill="#128870" font-weight="bold" font-size="12pt" font-family="noto_regular"  y="15">Deployment</text><text text-decoration="none" x="89.08500000000001" fill="#4b4b4b" font-size="10pt" font-family="noto_regular"  y="15"></text></g></g><g id="XCkQgCmpIJ8"><g transform="translate(840 500.000005)"><path d="M 45,0 L 115,0 L 115,0 L 115,0 A 45 45 0 0 1 160 45 L 160,55 L 160,55 L 160,55 A 45 45 0 0 1 115 100 L 45,100 L 45,100 L 45,100 A 45 45 0 0 1 0 55.00000000000001 L 0,45 L 0,45 L 0,45.00000000000001 A 45 45 0 0 1 45 0 Z" fill="rgb(109,213,192)" stroke="#51c0aa" stroke-width="2" stroke-linecap="round" stroke-linejoin="round"/></g><g transform="translate(893.58, 539.195005) rotate(0, 26.42, 10.805)" width="52.84" height="21.61"><text text-decoration="none" x="0.4200000000000017" fill="#ffffff" font-weight="bold" font-size="12pt" font-family="noto_regular"  y="15">Review</text><text text-decoration="none" x="52.42" fill="#4b4b4b" font-size="10pt" font-family="noto_regular"  y="15"></text></g></g><g id="PyIdtdsI6pH"><g transform="translate(1080 500.000005)"><path d="M 45,0 L 115,0 L 115,0 L 115,0 A 45 45 0 0 1 160 45 L 160,55 L 160,55 L 160,55 A 45 45 0 0 1 115 100 L 45,100 L 45,100 L 45,100 A 45 45 0 0 1 0 55.00000000000001 L 0,45 L 0,45 L 0,45.00000000000001 A 45 45 0 0 1 45 0 Z" fill="rgb(255,228,169)" stroke="#ffc648" stroke-width="2" stroke-linecap="round" stroke-linejoin="round"/></g><g transform="translate(1129.56, 539.195005) rotate(0, 30.44, 10.805)" width="60.88" height="21.61"><text text-decoration="none" x="1.4400000000000013" fill="#ffc648" font-weight="bold" font-size="12pt" font-family="noto_regular"  y="15">Delivery</text><text text-decoration="none" x="59.44" fill="#4b4b4b" font-size="10pt" font-family="noto_regular"  y="15"></text></g></g><g id="P6RnQM728YN"><g transform="translate(1080 300.000005)"><path d="M 45,0 L 115,0 L 115,0 L 115,0 A 45 45 0 0 1 160 45 L 160,55 L 160,55 L 160,55 A 45 45 0 0 1 115 100 L 45,100 L 45,100 L 45,100 A 45 45 0 0 1 0 55.00000000000001 L 0,45 L 0,45 L 0,45.00000000000001 A 45 45 0 0 1 45 0 Z" fill="rgb(255,215,125)" stroke="#facd6a" stroke-width="2" stroke-linecap="round" stroke-linejoin="round"/></g><g transform="translate(1124.375, 339.195005) rotate(0, 35.625, 10.805)" width="71.25" height="21.61"><text text-decoration="none" x="0.125" fill="#ffffff" font-weight="bold" font-size="12pt" font-family="noto_regular"  y="15">Feedback</text><text text-decoration="none" x="71.125" fill="#4b4b4b" font-size="10pt" font-family="noto_regular"  y="15"></text></g></g><g id="8uPyXZacCxL"><g><path d="M 440,400 L 440,500" fill="none" stroke="#a0a0a0" stroke-width="2" stroke-linecap="round" stroke-linejoin="round"/><path d="M 440,500 L 446.25,486.95657844965893 L 440,491.30438563310594 L 433.75,486.95657844965893 Z" fill="rgb(160,160,160)" stroke="#a0a0a0" stroke-width="2" stroke-linecap="round" stroke-linejoin="round"/></g></g><g id="7yekFedYHZ3"><g><path d="M 520,550 L 600,550" fill="none" stroke="#a0a0a0" stroke-width="2" stroke-linecap="round" stroke-linejoin="round"/><path d="M 600,550 L 586.9565784496589,543.75 L 591.304385633106,550 L 586.9565784496589,556.25 Z" fill="rgb(160,160,160)" stroke="#a0a0a0" stroke-width="2" stroke-linecap="round" stroke-linejoin="round"/></g></g><g id="V2coEzmIiJJ"><g><path d="M 680,400 L 680,500" fill="none" stroke="#a0a0a0" stroke-width="2" stroke-linecap="round" stroke-linejoin="round"/><path d="M 680,400 L 673.75,413.04342155034107 L 680,408.69561436689406 L 686.25,413.04342155034107 Z" fill="rgb(160,160,160)" stroke="#a0a0a0" stroke-width="2" stroke-linecap="round" stroke-linejoin="round"/></g></g><g id="prUlKleWKxy"><g><path d="M 760,350 L 840,350" fill="none" stroke="#a0a0a0" stroke-width="2" stroke-linecap="round" stroke-linejoin="round"/><path d="M 840,350 L 826.9565784496589,343.75 L 831.304385633106,350 L 826.9565784496589,356.25 Z" fill="rgb(160,160,160)" stroke="#a0a0a0" stroke-width="2" stroke-linecap="round" stroke-linejoin="round"/></g></g><g id="f6mRx9uXzAl"><g><path d="M 920,400 L 920,500" fill="none" stroke="#a0a0a0" stroke-width="2" stroke-linecap="round" stroke-linejoin="round"/><path d="M 920,500 L 926.25,486.95657844965893 L 920,491.30438563310594 L 913.75,486.95657844965893 Z" fill="rgb(160,160,160)" stroke="#a0a0a0" stroke-width="2" stroke-linecap="round" stroke-linejoin="round"/></g></g><g id="vAeNLHuMlbK"><g><path d="M 1000,550 L 1080,550" fill="none" stroke="#a0a0a0" stroke-width="2" stroke-linecap="round" stroke-linejoin="round"/><path d="M 1080,550 L 1066.956578449659,543.75 L 1071.304385633106,550 L 1066.956578449659,556.25 Z" fill="rgb(160,160,160)" stroke="#a0a0a0" stroke-width="2" stroke-linecap="round" stroke-linejoin="round"/></g></g><g id="8xJazj7d8HS"><g><path d="M 1160,400 L 1160,500" fill="none" stroke="#a0a0a0" stroke-width="2" stroke-linecap="round" stroke-linejoin="round"/><path d="M 1160,400 L 1153.75,413.04342155034107 L 1160,408.69561436689406 L 1166.25,413.04342155034107 Z" fill="rgb(160,160,160)" stroke="#a0a0a0" stroke-width="2" stroke-linecap="round" stroke-linejoin="round"/></g></g><g id="3ofYrJd9hk7"><g><path d="M 1160,300 L 1160,243 Q 1160,233 1150,233 L 800,233 L 450,233 Q 440,233 440,243 L 440,300" fill="none" stroke="#a0a0a0" stroke-width="2" stroke-linecap="round" stroke-linejoin="round"/><path d="M 440,300 L 446.25,286.95657844965893 L 440,291.30438563310594 L 433.75,286.95657844965893 Z" fill="rgb(160,160,160)" stroke="#a0a0a0" stroke-width="2" stroke-linecap="round" stroke-linejoin="round"/></g></g><g id="Rd0wJoL3d7T"><g transform="translate(620 650)"><rect x="0" y="0" width="370" height="50" fill="rgba(255,255,255,0.01)" stroke="rgba(255,255,255,0.01)"/></g><g transform="translate(632.87, 660) rotate(0, 172.13, 0)" width="344.26" height="25.61"><text text-decoration="none" x="1.1299999999999955" fill="#355e3b" font-weight="bold" font-size="14pt" font-family="noto_regular"  y="17">-&#160;</text><text text-decoration="none" x="13.129999999999995" fill="#355e3b" font-weight="bold" font-size="14pt" font-family="noto_regular"  y="17">Agile&#160;</text><text text-decoration="none" x="62.129999999999995" fill="#355e3b" font-weight="bold" font-size="14pt" font-family="noto_regular"  y="17">Software&#160;</text><text text-decoration="none" x="144.13" fill="#355e3b" font-weight="bold" font-size="14pt" font-family="noto_regular"  y="17">Development&#160;</text><text text-decoration="none" x="261.13" fill="#355e3b" font-weight="bold" font-size="14pt" font-family="noto_regular"  y="17">Process&#160;</text><text text-decoration="none" x="336.13" fill="#355e3b" font-weight="bold" font-size="14pt" font-family="noto_regular"  y="17">-</text><text text-decoration="none" x="343.13" fill="#4b4b4b" font-size="10pt" font-family="noto_regular"  y="17"></text></g></g><g id="2UY9cCElFCH"><g transform="translate(239.99999999999994 329.99999996964476)"><path d="M 110.00000000000001,20 L 71.9999999999999,0 L 71.9999999999999,11.953107122360258 L 40,11.953107122360258 L 40,28.046892877639742 L 71.9999999999999,28.046892877639742 L 71.9999999999999,40 L 110.00000000000001,20 Z M 30,11.953107122360258 L 16.666666666666668,11.953107122360258 L 16.666666666666668,28.046892877639742 L 30,28.046892877639742 Z M 0,11.953107122360258 L 6.666666666666667,11.953107122360258 L 6.666666666666667,28.046892877639742 L 0,28.046892877639742 Z" fill="rgb(109,136,240)" stroke="#f6f6f6" stroke-width="2" stroke-linecap="round" stroke-linejoin="round"/></g><g transform="translate(294.99499999999995, 341.19499996964475) rotate(0, 0.005, 8.805)" width="0.01" height="17.61"><text text-decoration="none" x="0.005" fill="#4b4b4b" font-size="10pt" font-family="noto_regular"  y="15"></text></g></g></svg>